<svg data-v-423bf9ae="" xmlns="http://www.w3.org/2000/svg" viewBox="0 0 314 107" class="iconLeft"><!----><!----><!----><g data-v-423bf9ae="" id="8ce18fce-1a1d-4162-bf05-4cb9dd96249a" fill="#341930" transform="matrix(5.645049306932221,0,0,5.645049306932221,100.93264840446835,22.524303789148785)"><path d="M3.77 7.57L3.77 7.57L5.24 7.57C5.33 7.57 5.40 7.50 5.40 7.42C5.40 7.39 5.40 7.38 5.39 7.35L4.66 5.56C4.62 5.46 4.54 5.42 4.44 5.46C4.37 5.49 4.33 5.59 4.35 5.67L5.01 7.27L3.77 7.27C3.68 7.27 3.60 7.34 3.60 7.42C3.60 7.50 3.68 7.57 3.77 7.57ZM2.72 10.40L2.72 10.40L3.05 9.59L5.95 9.59L6.29 10.40C6.33 10.50 6.41 10.53 6.50 10.50C6.58 10.47 6.62 10.36 6.59 10.29L6.22 9.38C6.20 9.32 6.15 9.28 6.06 9.28L2.95 9.28C2.88 9.28 2.81 9.31 2.80 9.38L2.42 10.29C2.38 10.36 2.42 10.47 2.52 10.50C2.60 10.53 2.69 10.50 2.72 10.40ZM0.55 10.40L0.55 10.40L4.51 0.70L8.47 10.40C8.50 10.50 8.60 10.53 8.68 10.50C8.76 10.47 8.79 10.36 8.76 10.29L4.66 0.22C4.61 0.08 4.41 0.07 4.35 0.22L0.25 10.29C0.21 10.36 0.25 10.47 0.34 10.50C0.42 10.53 0.52 10.50 0.55 10.40ZM17.07 9.79L17.07 9.79C16.32 10.21 15.48 10.40 14.64 10.40C12.38 10.40 10.86 9.20 10.16 7.63C9.59 6.36 9.58 4.83 10.09 3.53C10.77 1.92 12.25 0.66 14.66 0.59C15.44 0.56 16.20 0.69 16.94 0.92C17.02 0.95 17.11 0.91 17.15 0.83C17.18 0.74 17.12 0.64 17.04 0.62C16.25 0.36 15.47 0.22 14.64 0.25C12.10 0.34 10.50 1.69 9.80 3.40C9.24 4.79 9.27 6.41 9.87 7.76C10.61 9.44 12.22 10.74 14.64 10.74C15.58 10.74 16.49 10.49 17.32 10.02C17.36 9.98 17.40 9.93 17.39 9.87L17.39 5.49C17.39 5.40 17.32 5.33 17.23 5.33C17.15 5.33 17.07 5.40 17.07 5.49ZM16.80 2.65L16.80 2.65C16.13 2.34 15.37 2.25 14.64 2.28C13.13 2.34 12.17 3.16 11.75 4.21C11.42 5.05 11.44 6.05 11.80 6.87C12.24 7.91 13.20 8.71 14.64 8.71C14.84 8.71 15.04 8.69 15.22 8.65C15.30 8.65 15.36 8.58 15.36 8.50L15.36 5.49C15.36 5.40 15.29 5.33 15.20 5.33C15.11 5.33 15.04 5.40 15.04 5.49L15.04 8.34C14.90 8.37 14.77 8.37 14.64 8.37C13.34 8.37 12.50 7.67 12.10 6.75C11.76 6.01 11.75 5.10 12.05 4.34C12.43 3.40 13.29 2.66 14.66 2.62C15.34 2.58 16.03 2.66 16.67 2.94C16.76 2.98 16.86 2.94 16.88 2.86C16.93 2.79 16.88 2.69 16.80 2.65ZM27.92 10.50L27.92 10.50L27.92 4.17C27.92 4.00 27.72 3.93 27.62 4.09L24.78 8.15L21.94 4.07C21.84 3.95 21.63 4.00 21.63 4.17L21.63 10.50C21.63 10.58 21.70 10.65 21.78 10.65C21.90 10.65 21.97 10.58 21.97 10.50L21.97 4.69L24.63 8.54C24.64 8.55 24.65 8.57 24.67 8.58C24.77 8.62 24.86 8.61 24.91 8.54L27.59 4.69L27.59 10.50C27.59 10.58 27.66 10.65 27.76 10.65C27.85 10.65 27.92 10.58 27.92 10.50ZM19.94 10.50L19.94 10.50L19.94 0.34C19.94 0.25 19.85 0.18 19.75 0.18C19.67 0.18 19.60 0.25 19.60 0.34L19.60 10.50C19.60 10.58 19.67 10.65 19.75 10.65C19.85 10.65 19.94 10.58 19.94 10.50ZM29.95 10.50L29.95 10.50L29.95 0.34C29.95 0.25 29.88 0.18 29.78 0.18C29.69 0.18 29.62 0.25 29.62 0.34L29.62 10.50C29.62 10.58 29.69 10.65 29.78 10.65C29.88 10.65 29.95 10.58 29.95 10.50ZM27.82 0.25L27.82 0.25L24.78 4.61L21.73 0.25C21.67 0.17 21.57 0.15 21.50 0.21C21.43 0.25 21.41 0.36 21.46 0.43L24.63 4.98C24.64 5.00 24.65 5.01 24.67 5.03C24.77 5.08 24.86 5.05 24.91 4.98L28.08 0.43C28.13 0.36 28.11 0.25 28.04 0.21C27.97 0.15 27.86 0.17 27.82 0.25ZM36.61 6.33L36.61 6.33L34.37 6.33C34.27 6.33 34.20 6.40 34.20 6.50L34.20 8.50C34.20 8.58 34.27 8.65 34.37 8.65L37.55 8.65C37.63 8.65 37.70 8.58 37.70 8.50C37.70 8.40 37.63 8.33 37.55 8.33L34.52 8.33L34.52 6.65L36.61 6.65C36.71 6.65 36.78 6.58 36.78 6.50C36.78 6.40 36.71 6.33 36.61 6.33ZM37.55 2.34L37.55 2.34L34.37 2.34C34.27 2.34 34.20 2.41 34.20 2.49L34.20 4.49C34.20 4.58 34.27 4.66 34.37 4.66L36.61 4.66C36.71 4.66 36.78 4.58 36.78 4.49C36.78 4.41 36.71 4.33 36.61 4.33L34.52 4.33L34.52 2.66L37.55 2.66C37.63 2.66 37.70 2.59 37.70 2.49C37.70 2.41 37.63 2.34 37.55 2.34ZM37.55 10.33L37.55 10.33L32.52 10.33L32.52 0.66L37.55 0.66C37.63 0.66 37.70 0.59 37.70 0.49C37.70 0.41 37.63 0.34 37.55 0.34L32.37 0.34C32.27 0.34 32.20 0.41 32.20 0.49L32.20 10.50C32.20 10.58 32.27 10.65 32.37 10.65L37.55 10.65C37.63 10.65 37.70 10.58 37.70 10.50C37.70 10.40 37.63 10.33 37.55 10.33Z"></path></g><defs data-v-423bf9ae=""><linearGradient data-v-423bf9ae="" gradientTransform="rotate(25)" id="d4d5d36b-869c-4408-8824-be634a11e1c1" x1="0%" y1="0%" x2="100%" y2="0%"><stop data-v-423bf9ae="" offset="0%" style="stop-color: rgb(142, 66, 211); stop-opacity: 1;"></stop><stop data-v-423bf9ae="" offset="100%" style="stop-color: rgb(212, 105, 117); stop-opacity: 1;"></stop></linearGradient></defs><g data-v-423bf9ae="" id="67ef52c7-09d5-4ba4-ad86-08131829279b" transform="matrix(1.0868111504448785,0,0,1.0868111504448785,-13.255261890115804,-0.23894260335429607)" stroke="none" fill="url(#d4d5d36b-869c-4408-8824-be634a11e1c1)"><g clip-rule="evenodd"><path d="M12.983 10.59l17.018 88.223-5.872-59.049 29.021-1.892-.054-9.883L64.549 1 53.622 18.977z"></path><path d="M59.389 54.548l5.16-53.541-8.74 39.716-19.612 1.045 1.57 20.462-7.766 36.583 12.057-39.899z"></path><path d="M62.8 67.182l.549-10.453-15.979 3.755-.032 11.797-17.337 26.532 21.68-27.616zM65.711 62.394l14.841-4.731 1.509-12.532-15.899 2.095zM72.07 44.502l10.988-1.417 1.581-10.278-8.079-.373L64.549 1l8.43 30.967z"></path><path d="M87.413 31.294l1.256-9.506-9.544-2.694L64.549 1l14.483 22.437-.422 7z"></path></g></g><!----></svg>